<?xml version="1.0" encoding="UTF-8"?>
<svg width="26px" height="18px" viewBox="0 0 26 18" version="1.1" xmlns="http://www.w3.org/2000/svg" xmlns:xlink="http://www.w3.org/1999/xlink">
    <!-- Generator: Sketch 53.2 (72643) - https://sketchapp.com -->
    <title>email</title>
    <desc>Created with Sketch.</desc>
    <g id="mockup-2-design" stroke="none" stroke-width="1" fill="none" fill-rule="evenodd">
        <g id="nav-contact" transform="translate(-399.000000, -20.000000)" fill-rule="nonzero" stroke="#CEA345">
            <g id="email" transform="translate(400.000000, 21.000000)">
                <path d="M0.8,1.5 C1.5,1.9 10.6,6.8 11,7 C11.3,7.2 11.8,7.3 12.2,7.3 C12.6,7.3 13.1,7.2 13.4,7 C13.7,6.8 22.9,1.9 23.6,1.5 C24.3,1.1 24.9,5.32907052e-15 23.7,5.32907052e-15 L0.7,5.32907052e-15 C-0.5,4.4408921e-15 0.1,1.1 0.8,1.5 Z M23.9,4.2 C23.1,4.6 13.9,9.4 13.4,9.7 C12.9,9.9 12.6,10 12.2,10 C11.8,10 11.4,10 11,9.7 C10.5,9.5 1.3,4.6 0.5,4.2 C1.77635684e-15,3.9 1.77635684e-15,4.2 1.77635684e-15,4.5 C1.77635684e-15,4.7 1.77635684e-15,14.5 1.77635684e-15,14.5 C1.77635684e-15,15.1 0.8,15.8 1.3,15.8 L23.1,15.8 C23.7,15.8 24.4,15.1 24.4,14.5 C24.4,14.5 24.4,4.8 24.4,4.5 C24.4,4.2 24.4,3.9 23.9,4.2 Z" id="Shape"></path>
            </g>
        </g>
    </g>
</svg>