<?xml version="1.0" encoding="UTF-8"?>
<svg width="28px" height="28px" viewBox="0 0 28 28" version="1.1" xmlns="http://www.w3.org/2000/svg" xmlns:xlink="http://www.w3.org/1999/xlink">
    <!-- Generator: Sketch 53.2 (72643) - https://sketchapp.com -->
    <title>fb-icon</title>
    <desc>Created with Sketch.</desc>
    <g id="mockup-2-design" stroke="none" stroke-width="1" fill="none" fill-rule="evenodd">
        <g id="nav-contact" transform="translate(-1341.000000, -13.000000)" fill-rule="nonzero" stroke="#CEA345">
            <g id="fb-icon" transform="translate(1342.000000, 14.000000)">
                <path d="M13,0 C5.8,0 0,5.8 0,13 C0,20.2 5.8,26 13,26 C20.2,26 26,20.2 26,13 C26,5.8 20.2,0 13,0 Z M16.1,9 L14.1,9 C13.9,9 13.6,9.3 13.6,9.7 L13.6,11.1 L16.1,11.1 L16.1,13.1 L13.6,13.1 L13.6,19.2 L11.3,19.2 L11.3,13.1 L9.2,13.1 L9.2,11.1 L11.3,11.1 L11.3,9.9 C11.3,8.2 12.5,6.8 14.1,6.8 L16.1,6.8 L16.1,9 Z" id="Shape"></path>
            </g>
        </g>
    </g>
</svg>