<svg id="Layer_1" data-name="Layer 1" xmlns="http://www.w3.org/2000/svg" viewBox="0 0 23.37 23.37"><defs><style>.cls-1{fill:#fff;}</style></defs><title>inst-icon</title><path class="cls-1" d="M20.76,14.18a7.06,7.06,0,1,1-14-1.36H2v9.39a3.65,3.65,0,0,0,3.65,3.65H21.73a3.65,3.65,0,0,0,3.65-3.65V12.82H20.63A7.09,7.09,0,0,1,20.76,14.18Zm1-11.69H5.66A3.65,3.65,0,0,0,2,6.14v4H7.93a7.06,7.06,0,0,1,11.54,0h5.92v-4A3.65,3.65,0,0,0,21.73,2.49ZM23.52,7a.65.65,0,0,1-.65.65h-2A.65.65,0,0,1,20.25,7V5a.66.66,0,0,1,.65-.65h2a.66.66,0,0,1,.65.65ZM18,14.18a4.35,4.35,0,1,0-4.35,4.35A4.35,4.35,0,0,0,18,14.18Z" transform="translate(-2.01 -2.49)"/></svg>