<?xml version="1.0" encoding="UTF-8"?>
<svg width="25px" height="25px" viewBox="0 0 25 25" version="1.1" xmlns="http://www.w3.org/2000/svg" xmlns:xlink="http://www.w3.org/1999/xlink">
    <!-- Generator: Sketch 53.2 (72643) - https://sketchapp.com -->
    <title>inst-icon</title>
    <desc>Created with Sketch.</desc>
    <g id="mockup-2-design" stroke="none" stroke-width="1" fill="none" fill-rule="evenodd">
        <g id="nav-contact" transform="translate(-1305.000000, -15.000000)" fill-rule="nonzero" stroke="#CEA345">
            <g id="inst-icon" transform="translate(1305.000000, 16.000000)">
                <path d="M19.75,11.69 C19.7252356,14.3600107 18.1962737,16.787608 15.7989172,17.9633004 C13.4015608,19.1389929 10.5460388,18.8615993 8.41979068,17.246471 C6.29354255,15.6313427 5.26040591,12.9548559 5.75,10.33 L0.99,10.33 L0.99,19.72 C0.99,21.7358393 2.62416066,23.37 4.64,23.37 L20.72,23.37 C22.7358393,23.37 24.37,21.7358393 24.37,19.72 L24.37,10.33 L19.62,10.33 C19.7070114,10.7780916 19.7505468,11.2335389 19.75,11.69 Z M20.75,2.97616884e-16 L4.65,2.97616884e-16 C3.68022835,-0.00265691862 2.74926548,0.380722304 2.06259336,1.06551827 C1.37592124,1.75031424 0.98999636,2.68022471 0.99,3.65 L0.99,7.65 L6.92,7.65 C8.24264952,5.77408823 10.3946903,4.65825515 12.69,4.65825515 C14.9853097,4.65825515 17.1373505,5.77408823 18.46,7.65 L24.38,7.65 L24.38,3.65 C24.3800036,2.68022471 23.9940788,1.75031424 23.3074066,1.06551827 C22.6207345,0.380722304 21.6897717,-0.00265691862 20.72,2.97616884e-16 L20.75,2.97616884e-16 Z M22.51,4.51 C22.51,4.86898509 22.2189851,5.16 21.86,5.16 L19.86,5.16 C19.5127818,5.14395765 19.2396296,4.85758839 19.24,4.51 L19.24,2.51 C19.2453654,2.15326097 19.533261,1.8653654 19.89,1.86 L21.89,1.86 C22.246739,1.8653654 22.5346346,2.15326097 22.54,2.51 L22.51,4.51 Z M16.99,11.69 C16.99,9.28756134 15.0424387,7.34 12.64,7.34 C10.2375613,7.34 8.29,9.28756134 8.29,11.69 C8.29,14.0924387 10.2375613,16.04 12.64,16.04 C13.7936917,16.04 14.9001313,15.5816977 15.7159145,14.7659145 C16.5316977,13.9501313 16.99,12.8436917 16.99,11.69 Z" id="Shape"></path>
            </g>
        </g>
    </g>
</svg>