<?xml version="1.0" encoding="UTF-8"?>
<svg width="74px" height="56px" viewBox="0 0 74 56" version="1.1" xmlns="http://www.w3.org/2000/svg" xmlns:xlink="http://www.w3.org/1999/xlink">
    <!-- Generator: Sketch 53.2 (72643) - https://sketchapp.com -->
    <title>logo</title>
    <desc>Created with Sketch.</desc>
    <g id="mockup-2-design" stroke="none" stroke-width="1" fill="none" fill-rule="evenodd">
        <g id="navbar" transform="translate(-762.000000, -157.000000)" fill="#CEA345" fill-rule="nonzero">
            <path d="M800.030435,212.402141 L762,212.402141 L798.021259,158.402049 L802.974805,158.402049 L800.84547,161.593417 L769.692993,208.28588 L800.030435,208.28588 L800.030435,212.402141 L800.030435,212.402141 Z M828.883118,167.192016 C827.692236,165.399368 826.044936,163.876616 824.177343,162.799355 C822.385198,161.765296 820.399775,161.151643 818.440432,161.11866 C815.737778,161.0736 812.600594,162.100691 810.332004,164.208295 C808.538929,165.875054 807.301008,168.253483 807.305665,171.353338 C807.309391,173.578934 808.56175,175.280533 810.655689,176.753579 C812.71237,178.199682 815.553347,179.444177 818.843292,180.698426 L817.012957,184.399856 C813.595402,183.083823 810.602596,181.743634 808.286035,180.114039 C805.09436,177.868932 803.184851,175.131881 803.178797,171.353338 C803.172277,166.980652 804.949983,163.5965 807.52782,161.201348 C810.610513,158.337013 814.855678,156.940616 818.504238,157.001934 C821.174756,157.046995 823.850397,157.865973 826.241475,159.245648 C828.647457,160.634148 830.773998,162.601927 832.316043,164.924611 L828.883118,167.192016 L828.883118,167.192016 Z M822.674885,182.13942 C826.361635,183.590169 829.386111,185.132431 831.636537,187.179181 C834.45935,189.745747 836.001861,192.969633 835.999998,197.515127 C835.998135,201.751239 833.915839,205.56648 830.778655,208.349986 C827.549256,211.215249 823.165768,213 818.802307,213 C814.948359,213 811.431602,211.848413 808.42529,209.983297 C805.101346,207.921218 802.407076,204.977912 800.580467,201.761459 L804.160098,199.735613 C805.663022,202.383009 807.876189,204.803711 810.601198,206.494161 C812.983428,207.972317 815.763393,208.884668 818.802307,208.884668 C822.153263,208.884668 825.534491,207.500812 828.037811,205.278932 C830.342728,203.23497 831.871733,200.493737 831.872664,197.515127 C831.874527,194.259652 830.809394,191.988996 828.862626,190.217717 C826.982458,188.507292 824.249066,187.158277 820.845948,185.838992 L822.674885,182.13942 L822.674885,182.13942 Z M790.6608,162.517381 L766.95634,162.517381 L766.95634,158.401584 L793.406768,158.401584 L790.6608,162.517381 L790.6608,162.517381 Z" id="logo"></path>
        </g>
    </g>
</svg>